<?xml version="1.0" encoding="UTF-8" standalone="no" ?>
<!DOCTYPE svg PUBLIC "-//W3C//DTD SVG 1.1//EN" "http://www.w3.org/Graphics/SVG/1.1/DTD/svg11.dtd">
<svg xmlns="http://www.w3.org/2000/svg" xmlns:xlink="http://www.w3.org/1999/xlink" version="1.1" width="1080" height="1080" viewBox="0 0 1080 1080" xml:space="preserve">
<desc>Created with Fabric.js 5.2.4</desc>
<defs>
</defs>
<g transform="matrix(1 0 0 1 540 540)" id="840ce114-4685-4984-a4cd-b43ff472683b"  >
<rect style="stroke: none; stroke-width: 1; stroke-dasharray: none; stroke-linecap: butt; stroke-dashoffset: 0; stroke-linejoin: miter; stroke-miterlimit: 4; fill: rgb(255,255,255); fill-rule: nonzero; opacity: 1; visibility: hidden;" vector-effect="non-scaling-stroke"  x="-540" y="-540" rx="0" ry="0" width="1080" height="1080" />
</g>
<g transform="matrix(1 0 0 1 540 540)" id="56264bd2-f302-45b4-a987-0062fd04042a"  >
</g>
<g transform="matrix(5.19 0 0 5.93 540 483.19)"  >
<g style="" vector-effect="non-scaling-stroke"   >
		<g transform="matrix(1 0 0 1 -6.55 -0.01)"  >
<path style="stroke: none; stroke-width: 1; stroke-dasharray: none; stroke-linecap: butt; stroke-dashoffset: 0; stroke-linejoin: miter; stroke-miterlimit: 4; fill: rgb(0,0,0); fill-rule: nonzero; opacity: 1;" vector-effect="non-scaling-stroke"  transform=" translate(-88.21, -19.99)" d="M 56 30.7038 L 56 10.3402 L 64.4915 10.3402 C 66.0161 10.3402 67.2921 10.5556 68.3196 10.9865 C 69.3537 11.4174 70.1293 12.0206 70.6463 12.7962 C 71.17 13.5717 71.4318 14.4699 71.4318 15.4908 C 71.4318 16.2663 71.2694 16.959 70.9446 17.5689 C 70.6198 18.1721 70.1723 18.6726 69.6023 19.0703 C 69.0322 19.468 68.3726 19.7464 67.6236 19.9055 L 67.6236 20.1044 C 68.4455 20.1442 69.2045 20.3662 69.9006 20.7706 C 70.6032 21.175 71.1667 21.7384 71.5909 22.4609 C 72.0152 23.1768 72.2273 24.0253 72.2273 25.0064 C 72.2273 26.1001 71.9489 27.0779 71.392 27.9396 C 70.8352 28.7947 70.0298 29.4709 68.9759 29.968 C 67.9219 30.4586 66.6425 30.7038 65.1378 30.7038 L 56 30.7038 Z M 60.9219 26.7365 L 63.9645 26.7365 C 65.0317 26.7365 65.8172 26.5343 66.321 26.13 C 66.8314 25.7256 67.0866 25.1622 67.0866 24.4396 C 67.0866 23.916 66.964 23.4652 66.7188 23.0874 C 66.4735 22.7029 66.1255 22.4079 65.6747 22.2024 C 65.224 21.9903 64.6837 21.8842 64.054 21.8842 L 60.9219 21.8842 L 60.9219 26.7365 Z M 60.9219 18.7124 L 63.6463 18.7124 C 64.1832 18.7124 64.6605 18.6229 65.0781 18.4439 C 65.4957 18.2649 65.8205 18.0064 66.0526 17.6683 C 66.2912 17.3303 66.4105 16.9226 66.4105 16.4453 C 66.4105 15.7625 66.1686 15.2256 65.6847 14.8345 C 65.2008 14.4434 64.5478 14.2479 63.7259 14.2479 L 60.9219 14.2479 L 60.9219 18.7124 Z M 73.4737 30.7038 L 73.4737 15.4311 L 78.1968 15.4311 L 78.1968 18.2152 L 78.3559 18.2152 C 78.6343 17.2076 79.0883 16.4586 79.7181 15.968 C 80.3478 15.4709 81.0803 15.2223 81.9155 15.2223 C 82.1409 15.2223 82.3729 15.2389 82.6115 15.272 C 82.8502 15.2985 83.0722 15.3416 83.2777 15.4013 L 83.2777 19.6271 C 83.0457 19.5476 82.7408 19.4846 82.363 19.4382 C 81.9917 19.3918 81.6603 19.3686 81.3686 19.3686 C 80.7919 19.3686 80.2716 19.4979 79.8076 19.7564 C 79.3502 20.0083 78.9889 20.3629 78.7237 20.8203 C 78.4652 21.2711 78.336 21.8014 78.336 22.4112 L 78.336 30.7038 L 73.4737 30.7038 Z M 87.8701 30.9624 C 86.8957 30.9624 86.0306 30.8 85.2749 30.4751 C 84.5259 30.1437 83.9326 29.6465 83.4951 28.9837 C 83.0642 28.3142 82.8488 27.4756 82.8488 26.468 C 82.8488 25.6196 82.9979 24.9036 83.2962 24.3203 C 83.5945 23.737 84.0055 23.263 84.5292 22.8984 C 85.0529 22.5339 85.6561 22.2588 86.3388 22.0732 C 87.0216 21.8809 87.7508 21.7517 88.5263 21.6854 C 89.3947 21.6058 90.094 21.523 90.6243 21.4368 C 91.1546 21.344 91.5391 21.2147 91.7778 21.049 C 92.023 20.8767 92.1457 20.6347 92.1457 20.3232 L 92.1457 20.2734 C 92.1457 19.763 91.97 19.3686 91.6187 19.0902 C 91.2673 18.8118 90.7934 18.6726 90.1968 18.6726 C 89.5538 18.6726 89.0368 18.8118 88.6457 19.0902 C 88.2546 19.3686 88.006 19.7531 87.8999 20.2436 L 83.4155 20.0845 C 83.5481 19.1565 83.8895 18.3279 84.4397 17.5987 C 84.9965 16.8629 85.7588 16.2862 86.7266 15.8686 C 87.7011 15.4444 88.871 15.2322 90.2366 15.2322 C 91.211 15.2322 92.1092 15.3482 92.9312 15.5803 C 93.7531 15.8056 94.469 16.1371 95.0789 16.5746 C 95.6887 17.0054 96.159 17.5357 96.491 18.1655 C 96.829 18.7952 96.998 19.5144 96.998 20.3232 L 96.998 30.7038 L 92.4241 30.7038 L 92.4241 28.576 L 92.3047 28.576 C 92.033 29.093 91.685 29.5305 91.2607 29.8885 C 90.8431 30.2465 90.3493 30.5149 89.7792 30.6939 C 89.2157 30.8729 88.5794 30.9624 87.8701 30.9624 Z M 89.3715 27.7805 C 89.8952 27.7805 90.3658 27.6745 90.7834 27.4624 C 91.2077 27.2502 91.5457 26.9586 91.7976 26.5874 C 92.0495 26.2095 92.1755 25.772 92.1755 25.2749 L 92.1755 23.8232 C 92.0363 23.8961 91.8672 23.9624 91.6684 24.022 C 91.4761 24.0817 91.264 24.138 91.032 24.1911 C 90.8 24.2441 90.5614 24.2905 90.3161 24.3303 C 90.0708 24.37 89.8355 24.4065 89.6101 24.4396 C 89.1528 24.5125 88.7617 24.6252 88.4368 24.7777 C 88.1187 24.9302 87.8734 25.129 87.7011 25.3743 C 87.5353 25.6129 87.4525 25.898 87.4525 26.2294 C 87.4525 26.7332 87.6315 27.1177 87.9894 27.3828 C 88.354 27.648 88.8147 27.7805 89.3715 27.7805 Z M 98.851 30.7038 L 98.851 15.4311 L 103.713 15.4311 L 103.713 30.7038 L 98.851 30.7038 Z M 101.287 13.6513 C 100.604 13.6513 100.018 13.4259 99.527 12.9751 C 99.037 12.5178 98.791 11.9676 98.791 11.3246 C 98.791 10.6882 99.037 10.1447 99.527 9.6939 C 100.018 9.2365 100.604 9.0078 101.287 9.0078 C 101.976 9.0078 102.563 9.2365 103.047 9.6939 C 103.537 10.1447 103.783 10.6882 103.783 11.3246 C 103.783 11.9676 103.537 12.5178 103.047 12.9751 C 102.563 13.4259 101.976 13.6513 101.287 13.6513 Z M 110.55 21.9936 L 110.55 30.7038 L 105.688 30.7038 L 105.688 15.4311 L 110.312 15.4311 L 110.312 18.2351 L 110.481 18.2351 C 110.819 17.3004 111.395 16.5679 112.211 16.0376 C 113.026 15.5007 113.997 15.2322 115.124 15.2322 C 116.198 15.2322 117.129 15.4742 117.918 15.9581 C 118.714 16.4354 119.33 17.1049 119.768 17.9666 C 120.212 18.8217 120.43 19.8227 120.424121 20.9695 L 120.424121 30.7038 L 115.562 30.7038 L 115.562 21.924 C 115.568 21.0755 115.353 20.4126 114.915 19.9354 C 114.484 19.4581 113.884 19.2195 113.116 19.2195 C 112.605 19.2195 112.154 19.3322 111.763 19.5575 C 111.379 19.7763 111.08 20.0911 110.868 20.5021 C 110.663 20.9131 110.557 21.4103 110.55 21.9936 Z" stroke-linecap="round" />
</g>
		<g transform="matrix(1 0 0 1 38.08 3.07)"  >
<polygon style="stroke: none; stroke-width: 1; stroke-dasharray: none; stroke-linecap: butt; stroke-dashoffset: 0; stroke-linejoin: miter; stroke-miterlimit: 4; fill: rgb(0,0,0); fill-rule: nonzero; opacity: 1;" vector-effect="non-scaling-stroke"  points="-7.68,7.64 -11.66,-7.64 -6.78,-7.64 -4.72,2.15 -4.59,2.15 -2.38,-7.64 2.38,-7.64 4.65,2.08 4.78,2.08 6.78,-7.64 11.66,-7.64 7.67,7.64 2.47,7.64 0.08,-1.26 -0.08,-1.26 -2.47,7.64 " />
</g>
		<g transform="matrix(1 0 0 1 56.93 3.1)"  >
<path style="stroke: none; stroke-width: 1; stroke-dasharray: none; stroke-linecap: butt; stroke-dashoffset: 0; stroke-linejoin: miter; stroke-miterlimit: 4; fill: rgb(0,0,0); fill-rule: nonzero; opacity: 1;" vector-effect="non-scaling-stroke"  transform=" translate(-151.7, -23.1)" d="M 149.644 30.9624 C 148.67 30.9624 147.805 30.8 147.049 30.4751 C 146.3 30.1437 145.706 29.6465 145.269 28.9837 C 144.838 28.3142 144.623 27.4756 144.623 26.468 C 144.623 25.6196 144.772 24.9036 145.07 24.3203 C 145.368 23.737 145.779 23.263 146.303 22.8984 C 146.827 22.5339 147.43 22.2588 148.113 22.0732 C 148.796 21.8809 149.525 21.7517 150.3 21.6854 C 151.169 21.6058 151.868 21.523 152.398 21.4368 C 152.929 21.344 153.313 21.2147 153.552 21.049 C 153.797 20.8767 153.92 20.6347 153.92 20.3232 L 153.92 20.2734 C 153.92 19.763 153.744 19.3686 153.393 19.0902 C 153.041 18.8118 152.567 18.6726 151.971 18.6726 C 151.328 18.6726 150.811 18.8118 150.42 19.0902 C 150.028 19.3686 149.78 19.7531 149.674 20.2436 L 145.189 20.0845 C 145.322 19.1565 145.663 18.3279 146.214 17.5987 C 146.77 16.8629 147.533 16.2862 148.501 15.8686 C 149.475 15.4444 150.645 15.2322 152.01 15.2322 C 152.985 15.2322 153.883 15.3482 154.705 15.5803 C 155.527 15.8056 156.243 16.1371 156.853 16.5746 C 157.463 17.0054 157.933 17.5357 158.265 18.1655 C 158.603 18.7952 158.772 19.5144 158.772 20.3232 L 158.772 30.7038 L 154.198 30.7038 L 154.198 28.576 L 154.079 28.576 C 153.807 29.093 153.459 29.5305 153.035 29.8885 C 152.617 30.2465 152.123 30.5149 151.553 30.6939 C 150.99 30.8729 150.353 30.9624 149.644 30.9624 Z M 151.145 27.7805 C 151.669 27.7805 152.14 27.6745 152.557 27.4624 C 152.982 27.2502 153.32 26.9586 153.572 26.5874 C 153.823 26.2095 153.949 25.772 153.949 25.2749 L 153.949 23.8232 C 153.81 23.8961 153.641 23.9624 153.442 24.022 C 153.25 24.0817 153.038 24.138 152.806 24.1911 C 152.574 24.2441 152.335 24.2905 152.09 24.3303 C 151.845 24.37 151.609 24.4065 151.384 24.4396 C 150.927 24.5125 150.536 24.6252 150.211 24.7777 C 149.893 24.9302 149.647 25.129 149.475 25.3743 C 149.309 25.6129 149.226 25.898 149.226 26.2294 C 149.226 26.7332 149.405 27.1177 149.763 27.3828 C 150.128 27.648 150.589 27.7805 151.145 27.7805 Z" stroke-linecap="round" />
</g>
		<g transform="matrix(1 0 0 1 72.11 3.07)"  >
<polygon style="stroke: none; stroke-width: 1; stroke-dasharray: none; stroke-linecap: butt; stroke-dashoffset: 0; stroke-linejoin: miter; stroke-miterlimit: 4; fill: rgb(0,0,0); fill-rule: nonzero; opacity: 1;" vector-effect="non-scaling-stroke"  points="8.02,-7.64 2.78,7.64 -2.79,7.64 -8.02,-7.64 -2.9,-7.64 -0.08,2.88 0.08,2.88 2.9,-7.64 " />
</g>
		<g transform="matrix(1 0 0 1 87.28 3.11)"  >
<path style="stroke: none; stroke-width: 1; stroke-dasharray: none; stroke-linecap: butt; stroke-dashoffset: 0; stroke-linejoin: miter; stroke-miterlimit: 4; fill: rgb(0,0,0); fill-rule: nonzero; opacity: 1;" vector-effect="non-scaling-stroke"  transform=" translate(-182.05, -23.11)" d="M 182.285 30.9922 C 180.687 30.9922 179.308 30.6773 178.148 30.0476 C 176.995 29.4112 176.107 28.5064 175.484 27.3331 C 174.867 26.1532 174.559 24.7512 174.559 23.1271 C 174.559 21.5495 174.87 20.1707 175.493 18.9908 C 176.117 17.8042 176.995 16.8828 178.128 16.2266 C 179.262 15.5637 180.598 15.2322 182.136 15.2322 C 183.223 15.2322 184.217 15.4013 185.118 15.7393 C 186.02 16.0774 186.799 16.5779 187.455 17.2408 C 188.111 17.9036 188.622 18.7223 188.986 19.6967 C 189.351 20.6645 189.533 21.7749 189.533 23.0277 L 189.533 24.2408 L 176.259 24.2408 L 176.259 21.4169 L 185.009 21.4169 C 185.002 20.8999 184.88 20.4392 184.641 20.0348 C 184.403 19.6304 184.074 19.3156 183.657 19.0902 C 183.246 18.8582 182.772 18.7422 182.235 18.7422 C 181.691 18.7422 181.204 18.8648 180.773 19.1101 C 180.342 19.3487 180.001 19.6768 179.749 20.0945 C 179.497 20.5054 179.365 20.9728 179.351 21.4965 L 179.351 24.37 C 179.351 24.9931 179.474 25.54 179.719 26.0107 C 179.965 26.4747 180.313 26.8359 180.763 27.0945 C 181.214 27.353 181.751 27.4822 182.374 27.4822 C 182.805 27.4822 183.196 27.4226 183.547 27.3033 C 183.899 27.184 184.2 27.0083 184.452 26.7763 C 184.704 26.5443 184.893 26.2592 185.019 25.9212 L 189.484 26.0504 C 189.298 27.0514 188.89 27.9231 188.261 28.6655 C 187.637 29.4013 186.819 29.9747 185.805 30.3857 C 184.79 30.79 183.617 30.9922 182.285 30.9922 Z" stroke-linecap="round" />
</g>
		<g transform="matrix(1 0 0 1 -74.77 0)"  >
<polygon style="stroke: none; stroke-width: 1; stroke-dasharray: none; stroke-linecap: butt; stroke-dashoffset: 0; stroke-linejoin: miter; stroke-miterlimit: 4; fill: rgb(172,106,255); fill-rule: nonzero; opacity: 1;" vector-effect="non-scaling-stroke"  points="15.21,-8.5 15.21,-13.71 5.59,-20 5.59,-15.98 11.93,-11.8 11.94,-8.6 8.99,-6.6 6.98,-8.07 6.98,-10.55 3.7,-12.8 3.7,-8.27 -1.5,-5.09 -1.5,3.34 -5.18,5.4 -7.06,3.93 -7.06,1.49 -4.83,-0.04 -4.83,-0.06 -4.83,-3.83 -8.85,-1.15 -11.92,-3.14 -14.72,-1.31 -10.34,1.69 -10.34,3.54 -13.5,5.67 -16.72,3.49 -16.72,-3.77 -11.94,-7.01 -11.93,-10.13 -5.8,-6.17 -0.64,-9.61 -3.78,-11.44 -5.84,-10.05 -10.32,-13.02 -5.27,-15.96 -0.89,-13.4 -0.89,-17.23 -5.26,-19.79 -15.21,-13.99 -15.21,-8.78 -20,-5.54 -20,5.26 -15.21,8.5 -15.21,13.71 -5.59,20 -5.59,15.98 -11.93,11.8 -11.94,8.6 -8.99,6.61 -6.98,8.07 -6.98,10.56 -3.7,12.8 -3.7,8.27 1.57,5.09 1.63,-3.33 5.18,-5.4 7.06,-3.92 7.06,-1.49 4.83,0.04 4.83,0.06 4.83,3.84 8.85,1.15 11.92,3.15 14.72,1.31 10.34,-1.69 10.34,-3.53 13.5,-5.67 16.72,-3.49 16.72,3.77 11.94,7.01 11.93,10.13 5.8,6.17 0.64,9.58 3.78,11.42 5.84,10.05 10.32,13.02 5.27,15.97 0.89,13.4 0.89,17.23 5.26,19.79 15.21,13.99 15.21,8.78 20,5.54 20,-5.26 " />
</g>
</g>
</g>
<g transform="matrix(1 0 0 1 647.86 489.23)" style="" id="2cb2fe89-02ba-41eb-a2c2-295120df3bd4"  >
		<rect fill="#000000" x="-371.58" y="-77.4" width="743.16" height="154.81"></rect>
		<text xml:space="preserve" font-family="Alegreya" font-size="137" font-style="normal" font-weight="700" style="stroke: none; stroke-width: 1; stroke-dasharray: none; stroke-linecap: butt; stroke-dashoffset: 0; stroke-linejoin: miter; stroke-miterlimit: 4; fill: rgb(255,255,255); fill-rule: nonzero; opacity: 1; white-space: pre;" ><tspan x="-266.74" y="43.04" >ArchEase</tspan></text>
</g>
</svg>